<svg id="visual" viewBox="0 0 900 600" width="900" height="600" xmlns="http://www.w3.org/2000/svg" xmlns:xlink="http://www.w3.org/1999/xlink" version="1.1"><path d="M0 363L21.5 377C43 391 86 419 128.8 422.7C171.7 426.3 214.3 405.7 257.2 398.7C300 391.7 343 398.3 385.8 395.8C428.7 393.3 471.3 381.7 514.2 387.7C557 393.7 600 417.3 642.8 424.2C685.7 431 728.3 421 771.2 420C814 419 857 427 878.5 431L900 435L900 601L878.5 601C857 601 814 601 771.2 601C728.3 601 685.7 601 642.8 601C600 601 557 601 514.2 601C471.3 601 428.7 601 385.8 601C343 601 300 601 257.2 601C214.3 601 171.7 601 128.8 601C86 601 43 601 21.5 601L0 601Z" fill="#ffd700"></path><path d="M0 397L21.5 402C43 407 86 417 128.8 420.7C171.7 424.3 214.3 421.7 257.2 420.8C300 420 343 421 385.8 429.7C428.7 438.3 471.3 454.7 514.2 450.2C557 445.7 600 420.3 642.8 416.2C685.7 412 728.3 429 771.2 441.8C814 454.7 857 463.3 878.5 467.7L900 472L900 601L878.5 601C857 601 814 601 771.2 601C728.3 601 685.7 601 642.8 601C600 601 557 601 514.2 601C471.3 601 428.7 601 385.8 601C343 601 300 601 257.2 601C214.3 601 171.7 601 128.8 601C86 601 43 601 21.5 601L0 601Z" fill="#bb9e19"></path><path d="M0 451L21.5 449.8C43 448.7 86 446.3 128.8 447.8C171.7 449.3 214.3 454.7 257.2 458C300 461.3 343 462.7 385.8 461.8C428.7 461 471.3 458 514.2 456.7C557 455.3 600 455.7 642.8 461.5C685.7 467.3 728.3 478.7 771.2 481.2C814 483.7 857 477.3 878.5 474.2L900 471L900 601L878.5 601C857 601 814 601 771.2 601C728.3 601 685.7 601 642.8 601C600 601 557 601 514.2 601C471.3 601 428.7 601 385.8 601C343 601 300 601 257.2 601C214.3 601 171.7 601 128.8 601C86 601 43 601 21.5 601L0 601Z" fill="#7c691c"></path><path d="M0 505L21.5 506.2C43 507.3 86 509.7 128.8 511.8C171.7 514 214.3 516 257.2 519.2C300 522.3 343 526.7 385.8 530.7C428.7 534.7 471.3 538.3 514.2 532.2C557 526 600 510 642.8 510C685.7 510 728.3 526 771.2 528.2C814 530.3 857 518.7 878.5 512.8L900 507L900 601L878.5 601C857 601 814 601 771.2 601C728.3 601 685.7 601 642.8 601C600 601 557 601 514.2 601C471.3 601 428.7 601 385.8 601C343 601 300 601 257.2 601C214.3 601 171.7 601 128.8 601C86 601 43 601 21.5 601L0 601Z" fill="#423817"></path><path d="M0 556L21.5 554.8C43 553.7 86 551.3 128.8 547C171.7 542.7 214.3 536.3 257.2 532.8C300 529.3 343 528.7 385.8 531.3C428.7 534 471.3 540 514.2 539.8C557 539.7 600 533.3 642.8 530.7C685.7 528 728.3 529 771.2 535C814 541 857 552 878.5 557.5L900 563L900 601L878.5 601C857 601 814 601 771.2 601C728.3 601 685.7 601 642.8 601C600 601 557 601 514.2 601C471.3 601 428.7 601 385.8 601C343 601 300 601 257.2 601C214.3 601 171.7 601 128.8 601C86 601 43 601 21.5 601L0 601Z" fill="#0a0a0a"></path></svg>